<svg width="135" height="159" viewBox="0 0 135 159" fill="none" xmlns="http://www.w3.org/2000/svg">
<path d="M102 109.05L135 126.9C128.1 136.3 119.45 143.85 109.05 149.55C98.65 155.25 87.3 158.1 75 158.1C61.2 158.1 48.6 154.55 37.2 147.45C25.9 140.35 16.85 130.85 10.05 118.95C3.35 106.95 3.57628e-07 93.7002 3.57628e-07 79.2002C3.57628e-07 68.2002 1.95 57.9502 5.85 48.4502C9.75 38.8502 15.1 30.4502 21.9 23.2502C28.8 15.9502 36.8 10.2502 45.9 6.15019C55 2.05019 64.7 0.000195742 75 0.000195742C87.3 0.000195742 98.65 2.85019 109.05 8.55018C119.45 14.2502 128.1 21.9002 135 31.5002L102 49.2002C98.5 45.2002 94.35 42.1002 89.55 39.9002C84.85 37.7002 80 36.6002 75 36.6002C67.8 36.6002 61.3 38.6002 55.5 42.6002C49.7 46.5002 45.1 51.7002 41.7 58.2002C38.3 64.6002 36.6 71.6002 36.6 79.2002C36.6 86.7002 38.3 93.7002 41.7 100.2C45.1 106.6 49.7 111.75 55.5 115.65C61.3 119.55 67.8 121.5 75 121.5C80.2 121.5 85.15 120.4 89.85 118.2C94.55 115.9 98.6 112.85 102 109.05Z" fill="white"/>
</svg>
