<svg width="780" height="300" viewBox="0 0 780 300" fill="none" xmlns="http://www.w3.org/2000/svg">
<path d="M102 179.85L135 197.7C128.1 207.1 119.45 214.65 109.05 220.35C98.65 226.05 87.3 228.9 75 228.9C61.2 228.9 48.6 225.35 37.2 218.25C25.9 211.15 16.85 201.65 10.05 189.75C3.35 177.75 3.57628e-07 164.5 3.57628e-07 150C3.57628e-07 139 1.95 128.75 5.85 119.25C9.75 109.65 15.1 101.25 21.9 94.05C28.8 86.75 36.8 81.05 45.9 76.95C55 72.85 64.7 70.8 75 70.8C87.3 70.8 98.65 73.65 109.05 79.35C119.45 85.05 128.1 92.7 135 102.3L102 120C98.5 116 94.35 112.9 89.55 110.7C84.85 108.5 80 107.4 75 107.4C67.8 107.4 61.3 109.4 55.5 113.4C49.7 117.3 45.1 122.5 41.7 129C38.3 135.4 36.6 142.4 36.6 150C36.6 157.5 38.3 164.5 41.7 171C45.1 177.4 49.7 182.55 55.5 186.45C61.3 190.35 67.8 192.3 75 192.3C80.2 192.3 85.15 191.2 89.85 189C94.55 186.7 98.6 183.65 102 179.85ZM294.642 130.2V225H258.042V139.8C258.042 133.9 256.592 128.55 253.692 123.75C250.792 118.85 246.892 115 241.992 112.2C237.192 109.3 231.842 107.85 225.942 107.85C220.042 107.85 214.642 109.3 209.742 112.2C204.942 115 201.092 118.85 198.192 123.75C195.392 128.55 193.992 133.9 193.992 139.8V225H157.392L157.242 -1.78814e-05H193.842L193.992 88.35C199.092 82.95 205.192 78.7 212.292 75.6C219.392 72.4 227.042 70.8 235.242 70.8C246.142 70.8 256.092 73.5 265.092 78.9C274.092 84.2 281.242 91.35 286.542 100.35C291.942 109.25 294.642 119.2 294.642 130.2ZM387.598 228.9C373.798 228.9 361.198 225.35 349.798 218.25C338.498 211.15 329.448 201.6 322.648 189.6C315.948 177.6 312.598 164.35 312.598 149.85C312.598 138.95 314.548 128.75 318.448 119.25C322.348 109.65 327.698 101.25 334.498 94.05C341.398 86.75 349.398 81.05 358.498 76.95C367.598 72.85 377.298 70.8 387.598 70.8C399.298 70.8 409.998 73.3 419.698 78.3C429.498 83.2 437.798 89.95 444.598 98.55C451.398 107.15 456.348 116.95 459.448 127.95C462.548 138.95 463.248 150.45 461.548 162.45H351.898C353.298 168.05 355.598 173.1 358.798 177.6C361.998 182 366.048 185.55 370.948 188.25C375.848 190.85 381.398 192.2 387.598 192.3C393.998 192.4 399.798 190.9 404.998 187.8C410.298 184.6 414.698 180.3 418.198 174.9L455.548 183.6C449.448 196.9 440.348 207.8 428.248 216.3C416.148 224.7 402.598 228.9 387.598 228.9ZM350.698 135H424.498C423.398 129 421.048 123.6 417.448 118.8C413.948 113.9 409.598 110 404.398 107.1C399.198 104.2 393.598 102.75 387.598 102.75C381.598 102.75 376.048 104.2 370.948 107.1C365.848 109.9 361.498 113.75 357.898 118.65C354.398 123.45 351.998 128.9 350.698 135ZM579.478 75H618.328L536.278 300H497.428L524.578 225L470.578 75H510.628L542.878 174.9L579.478 75ZM779.798 130.2V225H743.198V139.8C743.198 133.9 741.748 128.55 738.848 123.75C735.948 118.85 732.048 115 727.148 112.2C722.348 109.3 716.998 107.85 711.098 107.85C705.198 107.85 699.798 109.3 694.898 112.2C690.098 115 686.248 118.85 683.348 123.75C680.548 128.55 679.148 133.9 679.148 139.8V225H642.548L642.398 75H678.998L679.148 88.35C684.248 82.95 690.348 78.7 697.448 75.6C704.548 72.4 712.198 70.8 720.398 70.8C731.298 70.8 741.248 73.5 750.248 78.9C759.248 84.2 766.398 91.35 771.698 100.35C777.098 109.25 779.798 119.2 779.798 130.2Z" fill="white"/>
</svg>
